<?xml version="1.0" standalone="no"?>
<svg viewBox="0 0 200 200" xmlns="http://www.w3.org/2000/svg">
  <path fill="#08BDBA" d="M39.4,-75C47.1,-63.7,46.9,-45.3,50.1,-31.6C53.4,-18,60.1,-9,60.9,0.5C61.7,9.9,56.6,19.8,49.9,27.6C43.3,35.3,35,40.9,26.4,52.4C17.9,63.9,8.9,81.4,-1.4,83.8C-11.8,86.3,-23.6,73.8,-36.8,65C-50,56.1,-64.6,51,-71.7,40.7C-78.7,30.5,-78.1,15.3,-77.2,0.5C-76.3,-14.2,-75,-28.4,-69.2,-40.6C-63.3,-52.8,-52.8,-63,-40.5,-71.7C-28.2,-80.4,-14.1,-87.6,0.8,-89C15.8,-90.5,31.6,-86.3,39.4,-75Z" transform="translate(100 100)" />
</svg>
