<svg viewBox="0 0 500 500" xmlns="http://www.w3.org/2000/svg" xmlns:xlink="http://www.w3.org/1999/xlink" width="100%" id="blobSvg">
  <defs>
    <pattern id="pattern" x="0" y="0" width="40" height="40" patternUnits="userSpaceOnUse" fill="#d1d8e0">
      <path d="M0 38.59l2.83-2.83 1.41 1.41L1.41 40H0v-1.41zM0 1.4l2.83 2.83 1.41-1.41L1.41 0H0v1.41zM38.59 40l-2.83-2.83 1.41-1.41L40 38.59V40h-1.41zM40 1.41l-2.83 2.83-1.41-1.41L38.59 0H40v1.41zM20 18.6l2.83-2.83 1.41 1.41L21.41 20l2.83 2.83-1.41 1.41L20 21.41l-2.83 2.83-1.41-1.41L18.59 20l-2.83-2.83 1.41-1.41L20 18.59z"></path>
    </pattern>
  </defs>
  <path id="blob" d="M473.5,307.5Q449,365,402,398Q355,431,302.5,455.5Q250,480,197,457Q144,434,91.5,403Q39,372,34,311Q29,250,36.5,190.5Q44,131,96,102.5Q148,74,199,38Q250,2,297,45Q344,88,389,116Q434,144,466,197Q498,250,473.5,307.5Z" fill="url(#pattern)" stroke-width="7px" stroke="#d1d8e0"></path>
</svg>