<svg xmlns="http://www.w3.org/2000/svg" version="1.1" xmlns:xlink="http://www.w3.org/1999/xlink" xmlns:svgjs="http://svgjs.com/svgjs" width="1440" height="560" preserveAspectRatio="none" viewBox="0 0 1440 560"><g mask="url(&quot;#SvgjsMask1154&quot;)" fill="none"><path d="M -223.37815635333828,375 C -151.38,342.2 -7.38,218.4 136.62184364666172,211 C 280.62,203.6 352.62,325.2 496.6218436466617,338 C 640.62,350.8 712.62,272.2 856.6218436466618,275 C 1000.62,277.8 1072.62,382.6 1216.6218436466618,352 C 1360.62,321.4 1531.95,108.2 1576.6218436466618,122 C 1621.3,135.8 1467.32,361.2 1440,421" stroke="rgba(8, 110, 117, 1)" stroke-width="2"></path><path d="M -464.7605943859047,220 C -392.76,235.2 -248.76,305.8 -104.76059438590471,296 C 39.24,286.2 111.24,148.2 255.2394056140953,171 C 399.24,193.8 471.24,394.2 615.2394056140953,410 C 759.24,425.8 831.24,268.2 975.2394056140953,250 C 1119.24,231.8 1242.29,319.2 1335.2394056140952,319 C 1428.19,318.8 1419.05,263 1440,249" stroke="rgba(8, 110, 117, 1)" stroke-width="2"></path><path d="M -319.03222162979796,251 C -247.03,265 -103.03,328.4 40.96777837020201,321 C 184.97,313.6 256.97,194.2 400.96777837020204,214 C 544.97,233.8 616.97,436.8 760.967778370202,420 C 904.97,403.2 976.97,129.8 1120.967778370202,130 C 1264.97,130.2 1417.16,418.2 1480.967778370202,421 C 1544.77,423.8 1448.19,199.4 1440,144" stroke="rgba(8, 110, 117, 1)" stroke-width="2"></path><path d="M -347.41565701791365,433 C -275.42,379 -131.42,173.4 12.584342982086358,163 C 156.58,152.6 228.58,376.2 372.58434298208635,381 C 516.58,385.8 588.58,176.8 732.5843429820864,187 C 876.58,197.2 948.58,444 1092.5843429820864,432 C 1236.58,420 1383.1,129.2 1452.5843429820864,127 C 1522.07,124.8 1442.52,362.2 1440,421" stroke="rgba(8, 110, 117, 1)" stroke-width="2"></path><path d="M -463.00851710488917,420 C -391.01,384 -247.01,243.6 -103.00851710488915,240 C 40.99,236.4 112.99,404 256.99148289511083,402 C 400.99,400 472.99,235.6 616.9914828951108,230 C 760.99,224.4 832.99,369.4 976.9914828951108,374 C 1120.99,378.6 1244.39,251.4 1336.991482895111,253 C 1429.59,254.6 1419.4,356.2 1440,382" stroke="rgba(8, 110, 117, 1)" stroke-width="2"></path><path d="M -508.00045204075275,299 C -436,278.2 -292,175.4 -148.00045204075278,195 C -4,214.6 68,411.8 211.99954795924722,397 C 356,382.2 428,136.2 571.9995479592473,121 C 716,105.8 788,301.6 931.9995479592473,321 C 1076,340.4 1190.4,209.6 1291.9995479592471,218 C 1393.6,226.4 1410.4,334 1440,363" stroke="rgba(8, 110, 117, 1)" stroke-width="2"></path></g><defs><mask id="SvgjsMask1154"><rect width="1440" height="560" fill="#ffffff"></rect></mask></defs></svg>